<?xml version="1.0" encoding="UTF-8"?>
<svg id="Layer_1" data-name="Layer 1" xmlns="http://www.w3.org/2000/svg" viewBox="0 0 1577.52 2143.68">
  <defs>
    <style>
      .cls-1 {
        fill: #fff;
      }
    </style>
  </defs>
  <path class="cls-1" d="M0,2143.68V0h1577.52v2143.68H0ZM144.8,965.78l4.68,9.64c4.76,9.82,13.9,6.18,22.08,4.2,4.59-1.12,10.07-.41,15.01-1.23l12.17-2.02c5.82,1.32,11.23,1.85,17.19,2.1l17.27.72,16.29.89,7.77.05,28.42.16c5.16.03,9.35,1.87,14.67.43,3.2-.87,7.1-.46,10.48-.44l13.61.11,11.29-1.26,18.52-.34c1.61-.03,5.02,1.21,6.61,1.64,3.65-.61,7.72-.76,11.42.38,3.47,1.07,6.96.48,10.54.23l10.71-.75,8.4-.32c12.38,1.1,23.58,1.03,35.74-.72l9.35.65,10.64.37,10.1.09c1.95.02,4.42-.18,6.5-.23l27.63-.59,12.39-.94,8.91-.33c10.11-.38,20-2.1,30.23-.94l15.6-.18,15.29-.84,21.12-1.04,11.52-.68,7.12.15,13.14-1.16,21.01-1.08,20.42-1.79c4.2-.37,9.26,1.19,13.51-.26,6.77-2.31,13.64-2.28,20.81-2.39l11.66-.17,12.27-.81,24.06-1.76,11.38-.21c4.12-.08,7.99.73,11.81-1.55,11.34.27,22.24-.65,33.45-2.95l13.27-1.34,13.57-2.63,34.24-4.4,14.15-2.84,26.03-.74,14.46-.93,20.51-.85,14.1-.67c3.04-.15,5.63-.46,9.21-.03l7.38-2.58,17.23-.86,22.25-1.95c6.62-.58,14.23,1.03,20.62-1.07s10.91-10.5,11.82-16.34c1.98-12.66.97-23.64-.68-35.74l-3.81-27.99c-.79-5.84,8.43-25.64.13-40.64-2-3.61-3.07-6.76-3.92-10.58-1.65-7.45-10.43-5.84-15.78-5.05l-10.45,1.54-18.22,1.41-18.27,4.08-20.17,1.91-12.44,1.09-10.65.76-26.17,1.93-14.98,1.62-12.4,1.09-12.55,1.77-15.27,1.19-13.48,1.67-9.57.97-10.34,1.26c-4.13.5-7.56,1.41-11.85,1.37-3.14-.03-5.69,1.38-8.88,1.54l-15.74.78c-4.7.23-9.63,3.38-14.09,2.93-9.14-.91-10.37,2.95-18.97,1.91l-9.3-1.13-16.52.86c-3.32,1.36-6.58,1.49-10.56,1.86l-11.46,1.07c-6.45.6-11.91,1.25-18.36.05l-9.17,1.71c-3.73-2.05-6.26-1.35-10.13-1.36l-23.44-.02-11.85,1.66-12.49.34-11.42.72c-8.06-.67-15.02-.63-22.96-.26l-11.72.54-17.81-.15-18.77-.27-16.88-.07-9.77-.48-59.96.81c-5.14.07-8.13,1.22-13.28.03-5.88-1.36-13.31-.59-19.34-.15l-14.55,1.08-19.82,1.98-12.93.65c-6.41.32-11.44,1.01-17.59-1.21-3.48-1.26-7.8-.38-11.39-.43-5.42-.08-10.66-1.83-15.61,1.25-8.85-1.25-17.58-.91-26.56-.19l-12.52,1.01-10.66.9-16.2.65-11.51-1.75c-11.38-1.73-17.74,2.3-27.87,2.53l-9.55.22-12.66.07c-7.9.04-15.82,3.63-23.93,4.06-4.3.23-7.44,1.44-11.36,3.26-2.58,1.2-7.36,1.47-9.38,4.03-4.6,5.83-2.51,16.08-5.87,15.69-3.68-.43-5.95-2.98-8.35-.88-2.93,8.01-4.02,18-5.03,26.47-.91,7.67-1.51,14.36-.67,21.86l2.99,26.87c.64,5.73.53,12.3,3.14,17.69ZM406.39,1207.53l7.04,3.8c7.46-4.64,14.94-4.24,23.28-5.12l13.22-1.39,9.08-.8,9.31-.38,12.22-.87c6.31-.45,10.05.22,16.21-1.63l9.98-1.2,18.23-1.71,28.89-2.85,20.83-1.23,19.29-.91,8.91-.94,11.96-.81c4.85-.33,9.5-2.3,14.07-2.05l14.07.76,18.21-.5,12.41-.37,20.67-.78,38.9-.44,11.4,1.78,33.23-.09,19.5-2.44c5.13,2.07,10.7,2.72,16.41,1.7,6.72-.18,14.39.77,20.59-.8,4.63-1.18,7.64-1.83,12.2-1.78l14.32.18,17.14-.31,16.39-1.25,21.02-1.58,15.54-.72,31.67-3.07,22.42-2.86c5.96-.76,10.75-1.93,16.87-2.44l19.08-1.6,12.72-1.47,37.17-3.21,19.82-2.77,9.03-1.31,30.69-3.76,12.46-1.42c7.12-.81,14.28-5.32,21.61-3.81,3.48.72,6.38,1.01,10.07.56l17.08-2.05c5.63-.68,7.97-1.83,10.45-6.48,7.05-13.27,7.42-21.85,8.4-35.23l2.43-33.21.81-17.38c.18-3.95.13-6.91.7-10.82l1.68-11.53c.47-10.45-4.08-35.52-8.18-37.74-1.19-.64-4.35.03-5.75.37l-9.57,2.31-8.59,3.36-15.69,4.34-19.56,2.35-16.48.96c-6.24.36-13.19.22-18.9,2.45-5.27,2.05-8.72,1.35-14.19.36-9.05-1.64-19.34-.74-28.4,1.3-7.84,1.77-14.92,2.72-22.94,3.16-11.85.65-20.65,7.2-28.8,7.41l-21.76.55-21.07,4.82-10.72,3-12.71.99-12.23.43c-7.6,2.22-15.02,2.94-22.92,2.89-7.5,3.2-15.03,5.73-23.22,5.65-3.23-1.34-6.24-1.17-9.13.49-5.12-.66-11.29-1.28-15.97,1.2-5.05,2.68-10.31,4.06-15.48.94l-20.97,4.8-10.09.35c-17.9-.61-35.6-.71-53.2,2.86-4.57.93-8.34,2.4-13.55,2.75l-9.51.64-26.77.53c-3.15.06-5.2.53-8.46-.6-1.56-.54-4.54-.26-6.44-.24l-39.81.38-12.64.82-20.97.62-14.46.91-9.39.36-25.11,1.36-14.38.6-13.43.89c-7.91.53-15.33.34-23,2.28-7.22-.28-14.1.47-21.07,2.07-9.83-2.44-19.79-1.45-28.73,2.87-8.06-.52-15.35.61-23.19,1.5l-15.41,1.74-17.61,1.71-32.38,4.27c-5.13.68-12.08,1.45-15.19,5.89-6.05,8.66-3.78,18.85-1.44,28.26,2.99,12.05,9.05,8.85,15.72,13.11l.55,20.78c-1.06,6.54-.32,12.76,2.32,18.88-.17,7.63,1.02,14.72,2.38,22.07,1.15,6.22,2.3,11.07,8.82,14.59ZM651.21,1379.36c1.38,9.42,1.63,18.85,7.99,25.3,4.57,5.56,11.02,6.65,17.49,4.18,9.15.17,17.69-.51,26.83-1.65l11.5-1.44,29.73-1.58,10.34,1.04,33.19-.83,59.94-.73,15.83-.43,19.71-.6c7.36-.23,14.65-.93,21.91.08l5.99-1.53,39.1.11,8.87.07h22.8c3.5.01,5.61.32,8.98-.95l8.05,1.3c5.85-1.8,11.26-2.57,16.67.11l6.8-1.68h36.26c2.33-.92,5.46-1.85,7.68-1.91l27-.72c4.53-.12,8.66-.45,12.79-1.62l21.35-.15,25.32-4.03c6.44-1.03,12.59-.34,18.62-2.84,5.35-2.21,11.12-1.92,16.9-2.39l10.67-.87,13.42-2.39,14.05-.57c7.1-.29,12.78-.73,19.83-1.98l13.37-2.37,7.32.75,38.32-3.57,33.55-2.76,15.55-.51,10.71-1.33,12.84-1.73,33.67-6.51,6.53-8.34c2.47-3.16,4.03-10.33,4.13-14.52l.58-23.88-.57-12.58c-.27-5.85-.91-10.78-.11-16.71.63-4.67.32-10.24,0-14.98l-1.83-27.15c-.47-6.95-2.41-14.47-4.57-20.9-1.48-4.4-6.18-5.24-9.73-2.93-2.36,1.53-5.59,1.52-8.47,1.97l-14.24,2.23-20.51,1.94-9.3,1.74-18.9,3.21-24.36,5.32c-2.43.53-6.16,2.04-8.48,1.73-6.8-.92-11.75,2.2-17.57,3.22l-24.37,4.3-6.97.56-22.25,4.55-16.13,2.31-14.49,1.89-11.05,2.14c-7.8,1.51-14.76,2.49-22.59,3.48l-14.24,1.8-17.93,3.5c-6.42,1.25-12.1,1.94-18.85,2.33l-14.35.82-21.98,2.39-19.53,2.5-33.17,2.2-8.18.8-49.81,4.91-8.62,1.89-19.65.92-14.73,1.52-21.05,1.87-14.38,1.78c-5.06.07-9.92,1-14.5,2.31l-18.09.44-11.54.88-14.43,1-22.09.36-12.12,1.49-12.39-.15-17.09.22-27.41.48-6.82.24-14.33.48-12.81.56c-9.78.43-19.86,1.1-29.06,4.66l-8.65,3.35-7.32,3.79c-6.05,3.13-9.38,9.56-10.65,16.11l-2.15,11.09-.41,23.98,2.58,17.62Z"/>
  <path d="M144.8,965.78c-2.61-5.39-2.5-11.96-3.14-17.69l-2.99-26.87c-.83-7.51-.24-14.2.67-21.86,1.01-8.47,2.1-18.46,5.03-26.47,2.4-2.1,4.67.45,8.35.88,3.36.39,1.26-9.85,5.87-15.69,2.02-2.55,6.8-2.83,9.38-4.03,3.92-1.82,7.06-3.03,11.36-3.26,8.11-.43,16.03-4.02,23.93-4.06l12.66-.07,9.55-.22c10.13-.23,16.48-4.27,27.87-2.53l11.51,1.75,16.2-.65,10.66-.9,12.52-1.01c8.98-.72,17.71-1.06,26.56.19,4.94-3.09,10.19-1.34,15.61-1.25,3.59.06,7.91-.83,11.39.43,6.15,2.22,11.18,1.53,17.59,1.21l12.93-.65,19.82-1.98,14.55-1.08c6.03-.45,13.46-1.22,19.34.15,5.15,1.19,8.14.04,13.28-.03l59.96-.81,9.77.48,16.88.07,18.77.27,17.81.15,11.72-.54c7.94-.37,14.9-.41,22.96.26l11.42-.72,12.49-.34,11.85-1.66,23.44.02c3.87,0,6.41-.7,10.13,1.36l9.17-1.71c6.45,1.2,11.91.55,18.36-.05l11.46-1.07c3.98-.37,7.24-.5,10.56-1.86l16.52-.86,9.3,1.13c8.6,1.05,9.83-2.81,18.97-1.91,4.46.44,9.39-2.7,14.09-2.93l15.74-.78c3.2-.16,5.74-1.57,8.88-1.54,4.29.04,7.72-.86,11.85-1.37l10.34-1.26,9.57-.97,13.48-1.67,15.27-1.19,12.55-1.77,12.4-1.09,14.98-1.62,26.17-1.93,10.65-.76,12.44-1.09,20.17-1.91,18.27-4.08,18.22-1.41,10.45-1.54c5.35-.79,14.12-2.4,15.78,5.05.85,3.82,1.92,6.97,3.92,10.58,8.3,15-.93,34.8-.13,40.64l3.81,27.99c1.65,12.1,2.66,23.08.68,35.74-.91,5.84-5.56,14.28-11.82,16.34s-14.01.49-20.62,1.07l-22.25,1.95-17.23.86-7.38,2.58c-3.58-.43-6.17-.11-9.21.03l-14.1.67-20.51.85-14.46.93-26.03.74-14.15,2.84-34.24,4.4-13.57,2.63-13.27,1.34c-11.21,2.3-22.11,3.22-33.45,2.95-3.82,2.27-7.69,1.47-11.81,1.55l-11.38.21-24.06,1.76-12.27.81-11.66.17c-7.16.1-14.04.08-20.81,2.39-4.25,1.45-9.31-.11-13.51.26l-20.42,1.79-21.01,1.08-13.14,1.16-7.12-.15-11.52.68-21.12,1.04-15.29.84-15.6.18c-10.23-1.16-20.12.56-30.23.94l-8.91.33-12.39.94-27.63.59c-2.08.04-4.55.25-6.5.23l-10.1-.09-10.64-.37-9.35-.65c-12.15,1.75-23.36,1.82-35.74.72l-8.4.32-10.71.75c-3.58.25-7.07.85-10.54-.23-3.7-1.15-7.77-.99-11.42-.38-1.6-.43-5-1.67-6.61-1.64l-18.52.34-11.29,1.26-13.61-.11c-3.37-.03-7.27-.43-10.48.44-5.33,1.44-9.51-.4-14.67-.43l-28.42-.16-7.77-.05-16.29-.89-17.27-.72c-5.97-.25-11.37-.77-17.19-2.1l-12.17,2.02c-4.94.82-10.41.11-15.01,1.23-8.18,1.99-17.32,5.62-22.08-4.2l-4.68-9.64Z"/>
  <path d="M406.39,1207.53c-6.51-3.52-7.66-8.37-8.82-14.59-1.36-7.35-2.55-14.43-2.38-22.07-2.64-6.13-3.38-12.34-2.32-18.88l-.55-20.78c-6.66-4.26-12.72-1.05-15.72-13.11-2.34-9.4-4.61-19.6,1.44-28.26,3.11-4.45,10.07-5.22,15.19-5.89l32.38-4.27,17.61-1.71,15.41-1.74c7.84-.89,15.13-2.02,23.19-1.5,8.94-4.32,18.9-5.31,28.73-2.87,6.97-1.6,13.85-2.35,21.07-2.07,7.68-1.94,15.09-1.75,23-2.28l13.43-.89,14.38-.6,25.11-1.36,9.39-.36,14.46-.91,20.97-.62,12.64-.82,39.81-.38c1.9-.02,4.88-.3,6.44.24,3.26,1.13,5.31.66,8.46.6l26.77-.53,9.51-.64c5.21-.35,8.98-1.82,13.55-2.75,17.59-3.57,35.29-3.47,53.2-2.86l10.09-.35,20.97-4.8c5.17,3.12,10.44,1.74,15.48-.94,4.68-2.49,10.84-1.87,15.97-1.2,2.89-1.66,5.91-1.83,9.13-.49,8.19.08,15.72-2.44,23.22-5.65,7.9.05,15.31-.67,22.92-2.89l12.23-.43,12.71-.99,10.72-3,21.07-4.82,21.76-.55c8.14-.21,16.94-6.75,28.8-7.41,8.02-.44,15.1-1.39,22.94-3.16,9.05-2.04,19.35-2.94,28.4-1.3,5.47.99,8.91,1.7,14.19-.36,5.71-2.22,12.66-2.08,18.9-2.45l16.48-.96,19.56-2.35,15.69-4.34,8.59-3.36,9.57-2.31c1.39-.34,4.55-1.01,5.75-.37,4.1,2.21,8.65,27.29,8.18,37.74l-1.68,11.53c-.57,3.91-.51,6.87-.7,10.82l-.81,17.38-2.43,33.21c-.98,13.37-1.35,21.96-8.4,35.23-2.47,4.66-4.81,5.81-10.45,6.48l-17.08,2.05c-3.68.44-6.59.16-10.07-.56-7.33-1.52-14.49,2.99-21.61,3.81l-12.46,1.42-30.69,3.76-9.03,1.31-19.82,2.77-37.17,3.21-12.72,1.47-19.08,1.6c-6.12.51-10.92,1.68-16.87,2.44l-22.42,2.86-31.67,3.07-15.54.72-21.02,1.58-16.39,1.25-17.14.31-14.32-.18c-4.56-.06-7.58.6-12.2,1.78-6.2,1.57-13.87.62-20.59.8-5.71,1.02-11.27.37-16.41-1.7l-19.5,2.44-33.23.09-11.4-1.78-38.9.44-20.67.78-12.41.37-18.21.5-14.07-.76c-4.57-.25-9.21,1.72-14.07,2.05l-11.96.81-8.91.94-19.29.91-20.83,1.23-28.89,2.85-18.23,1.71-9.98,1.2c-6.16,1.85-9.9,1.18-16.21,1.63l-12.22.87-9.31.38-9.08.8-13.22,1.39c-8.34.88-15.82.48-23.28,5.12l-7.04-3.8Z"/>
  <path d="M651.21,1379.36l-2.58-17.62.41-23.98,2.15-11.09c1.27-6.55,4.6-12.98,10.65-16.11l7.32-3.79,8.65-3.35c9.2-3.56,19.29-4.23,29.06-4.66l12.81-.56,14.33-.48,6.82-.24,27.41-.48,17.09-.22,12.39.15,12.12-1.49,22.09-.36,14.43-1,11.54-.88,18.09-.44c4.59-1.31,9.44-2.24,14.5-2.31l14.38-1.78,21.05-1.87,14.73-1.52,19.65-.92,8.62-1.89,49.81-4.91,8.18-.8,33.17-2.2,19.53-2.5,21.98-2.39,14.35-.82c6.75-.39,12.42-1.07,18.85-2.33l17.93-3.5,14.24-1.8c7.84-.99,14.8-1.97,22.59-3.48l11.05-2.14,14.49-1.89,16.13-2.31,22.25-4.55,6.97-.56,24.37-4.3c5.82-1.03,10.77-4.15,17.57-3.22,2.31.31,6.04-1.2,8.48-1.73l24.36-5.32,18.9-3.21,9.3-1.74,20.51-1.94,14.24-2.23c2.88-.45,6.12-.44,8.47-1.97,3.56-2.3,8.26-1.47,9.73,2.93,2.16,6.44,4.11,13.95,4.57,20.9l1.83,27.15c.32,4.73.64,10.3,0,14.98-.8,5.93-.16,10.86.11,16.71l.57,12.58-.58,23.88c-.1,4.19-1.66,11.37-4.13,14.52l-6.53,8.34-33.67,6.51-12.84,1.73-10.71,1.33-15.55.51-33.55,2.76-38.32,3.57-7.32-.75-13.37,2.37c-7.05,1.25-12.73,1.69-19.83,1.98l-14.05.57-13.42,2.39-10.67.87c-5.78.47-11.56.18-16.9,2.39-6.03,2.49-12.17,1.81-18.62,2.84l-25.32,4.03-21.35.15c-4.12,1.17-8.26,1.5-12.79,1.62l-27,.72c-2.22.06-5.35.99-7.68,1.92h-36.26s-6.8,1.67-6.8,1.67c-5.41-2.68-10.82-1.92-16.67-.11l-8.05-1.3c-3.38,1.27-5.48.96-8.98.96h-22.8s-8.87-.08-8.87-.08l-39.1-.11-5.99,1.53c-7.27-1.02-14.55-.31-21.91-.08l-19.71.6-15.83.43-59.94.73-33.19.83-10.34-1.04-29.73,1.58-11.5,1.44c-9.14,1.15-17.68,1.82-26.83,1.65-6.47,2.47-12.93,1.38-17.49-4.18-6.36-6.45-6.61-15.88-7.99-25.3Z"/>
</svg>