<?xml version="1.0" encoding="UTF-8"?>
<svg id="Layer_1" data-name="Layer 1" xmlns="http://www.w3.org/2000/svg" viewBox="0 0 1762.08 2285.52">
  <defs>
    <style>
      .cls-1 {
        fill: #fff;
      }
    </style>
  </defs>
  <path class="cls-1" d="M0,2285.52V0h1762.08v2285.52H0ZM646.22,1732.9l3.84-101.66,1.73-36.81.38-55.68,1.04-35.23-1.67-28.73-1.6-136.52-.64-168.8.81-27.65,1.09-112.53.46-27.64.63-19.11,1.35-30.4.43-19.77.8-197.08,2.77-16.98c1.25-7.67-.76-20.83-10.56-21.31l-52.56-2.59-6.5-10.1-12.13,4.86c-16.39-7.03-37.28-9.91-49.69.29l.87,19.04,1.96,52.23,1.14,66,.2,49.15-.05,40.45.33,151.59,2.18,65.11,1.5,74.05,1.02,29.84-.6,284.32-6.8,92.63-2.44,36.53-2.03,30.72-3.33,94.16c24.05,15.33,66.63,16.68,97.01,14.65,9.11-.61,17.87-1.39,25.91-7.51l-1.39-17.35c-.81-10.17,4.15-21.8,4.54-32.14ZM1316.12,1735.79l.32-68.14-1.52-38.36-1.35-47.97-1.79-25.15-1.9-64.03-1.51-85.09-2.33-68.06-3.66-57.06-.33-13.71-3.53-47.93-2.33-103.56-.21-191.69.49-15.5,1.52-24.59.23-89.32c.03-12.23,4.21-23.16,8.12-34.26,3.83-10.87-8.56-18.8-18.26-18.48-15.27.51-28.67-1.73-43.2-4.56l-32.28-6.3c-20.02-3.91-19.58-11.27-34.53-19.66-14.26-1.56-27.69,2.09-39.86,9.27l.63,72.95,3.99,60.61,7.94,94.54,7.57,116.06,2.24,38.81,5.57,118.84,3.54,80.66,2.12,41.95,1.93,61.89,2.58,154.15c-.76,64.8-1.26,127.18,3.01,191.78l4.45,67.33,30.62,7.86,20.6,4.52,35.58,3.6,31.11-2.69c4.74-.41,13.69-5.64,17.63-8.37,6.49-4.49,2.9-12.61.9-18.2-3.9-10.9-4-22.71-4.03-34.37l-.09-37.75ZM1162.48,1804.21c-14.74-24.86-24.58-51.35-34.34-78.97l-8.49-24-9.43-29.05-7.18-27.31-10.85-35.27-10.1-37.82-15.33-53.46-20.34-58.39-13.76-38-26.73-88.3-11.2-39.02-9.72-26.8-7.07-27.62-9.73-32.34-6.09-20.81-11.47-32.42-16.28-44.58-13.53-36.47-8.02-20.8c-10.04-26.02-21.33-50.08-31.55-76.24l-20.01-51.18-22.82-51.85-22.3-52.39c-5.36-12.58-8.32-25.09-15.35-36.69-3.86-6.36-5.58-14.12-7.73-21.16-5.3-17.37-29.93-2.54-50.28-1.81-11.97.43-26.79-2.89-35.6,7.13l-9.46,10.76c5.19,17.82-.03,32.2,5.61,53.88l4.47,17.19,16.92,53.92,16.48,46.89,19.35,53.73,32.77,97.82,23.48,70.64,25.48,85.48,8.59,27.82,8.78,30.13,30.45,102.37,27.1,102.93,6.38,26.47,5.33,21.53,7.15,27.29,19.64,66.45,14.74,50.51,12.03,48.33,5.6,22.46c1.37,5.48,3.61,10.14,9.42,11.61l103.05,26.02c16.14,4.08,28.67,6.68,45.98,2.56,8.05-1.91,22.62-9.92,15.95-21.18Z"/>
  <path d="M1316.12,1735.79l.09,37.75c.03,11.66.13,23.47,4.03,34.37,2,5.59,5.59,13.71-.9,18.2-3.94,2.73-12.89,7.96-17.63,8.37l-31.11,2.69-35.58-3.6-20.6-4.52-30.62-7.86-4.45-67.33c-4.27-64.6-3.77-126.98-3.01-191.78l-2.58-154.15-1.93-61.89-2.12-41.95-3.54-80.66-5.57-118.84-2.24-38.81-7.57-116.06-7.94-94.54-3.99-60.61-.63-72.95c12.17-7.17,25.61-10.83,39.86-9.27,14.96,8.39,14.51,15.75,34.53,19.66l32.28,6.3c14.53,2.84,27.93,5.07,43.2,4.56,9.7-.32,22.08,7.62,18.26,18.48-3.91,11.1-8.09,22.03-8.12,34.26l-.23,89.32-1.52,24.59-.49,15.5.21,191.69,2.33,103.56,3.53,47.93.33,13.71,3.66,57.06,2.33,68.06,1.51,85.09,1.9,64.03,1.79,25.15,1.35,47.97,1.52,38.36-.32,68.14Z"/>
  <path d="M1162.48,1804.21c6.68,11.26-7.9,19.26-15.95,21.18-17.31,4.11-29.84,1.51-45.98-2.56l-103.05-26.02c-5.82-1.47-8.06-6.13-9.42-11.61l-5.6-22.46-12.03-48.33-14.74-50.51-19.64-66.45-7.15-27.29-5.33-21.53-6.38-26.47-27.1-102.93-30.45-102.37-8.78-30.13-8.59-27.82-25.48-85.48-23.48-70.64-32.77-97.82-19.35-53.73-16.48-46.89-16.92-53.92-4.47-17.19c-5.64-21.67-.42-36.06-5.61-53.88l9.46-10.76c8.81-10.02,23.63-6.7,35.6-7.13,20.34-.73,44.98-15.55,50.28,1.81,2.15,7.04,3.87,14.8,7.73,21.16,7.03,11.6,10,24.1,15.35,36.69l22.3,52.39,22.82,51.85,20.01,51.18c10.23,26.17,21.52,50.23,31.55,76.24l8.02,20.8,13.53,36.47,16.28,44.58,11.47,32.42,6.09,20.81,9.73,32.34,7.07,27.62,9.72,26.8,11.2,39.02,26.73,88.3,13.76,38,20.34,58.39,15.33,53.46,10.1,37.82,10.85,35.27,7.18,27.31,9.43,29.05,8.49,24c9.77,27.62,19.6,54.11,34.34,78.97Z"/>
  <path d="M646.22,1732.9c-.39,10.34-5.35,21.98-4.54,32.14l1.39,17.35c-8.04,6.12-16.8,6.9-25.91,7.51-30.39,2.03-72.96.68-97.01-14.65l3.33-94.16,2.03-30.72,2.44-36.53,6.8-92.63.6-284.32-1.02-29.84-1.5-74.05-2.18-65.11-.33-151.59.05-40.45-.2-49.15-1.14-66-1.96-52.23-.87-19.04c12.41-10.2,33.29-7.33,49.69-.29l12.13-4.86,6.5,10.1,52.56,2.59c9.8.48,11.81,13.64,10.56,21.31l-2.77,16.98-.8,197.08-.43,19.77-1.35,30.4-.63,19.11-.46,27.64-1.09,112.53-.81,27.65.64,168.8,1.6,136.52,1.67,28.73-1.04,35.23-.38,55.68-1.73,36.81-3.84,101.66Z"/>
</svg>