<?xml version="1.0" encoding="UTF-8"?>
<svg id="Layer_1" data-name="Layer 1" xmlns="http://www.w3.org/2000/svg" viewBox="0 0 1586.88 2147.04">
  <defs>
    <style>
      .cls-1 {
        fill: #fff;
      }
    </style>
  </defs>
  <path class="cls-1" d="M0,2147.04V0h1586.88v2147.04H0ZM502.96,1454.89l3.58,12.49c2.29,7.98,9.77,13.76,18.07,14.85l21.92,2.87c9.05,1.18,18.39.27,27.63.22l33.67-.19,13.74.12,7.93.34,16.84.71,13.63,1.8,15.23,1.15,11.82.06,16.77.96,9.13.62,18.95,1.26,10.69.11,14.43.94,11.38.67,10.7.95,17.31.2,8.56-.09,23.14.8,21.72.31c5.63.08,10.94-.29,16.59.04l16.53.95,31.97,1.64,23.97,1.06,22.77,1.17,35.58.81,31.2.84,12.58.63,11.49.58,17.6.89,46.43-.11c14.1-.03,27.63-.54,41.7,1.24,6.63-.87,13.08-.87,19.9.3,4.91-3.16,8.11-8.22,9.19-13.84l6.75-3.17c3.77-8,6.83-21.5,4.2-28.07-2.36-5.91-2.47-11.22-2.95-17.54l-1.27-16.52-3.74-30.72-.21-7.6-.78-27.24-.73-16.97-.52-12.22-.43-40.2-.55-8.72-1.68-21.14-1.13-16.34-.73-28.5-1.12-12.2-1.84-25.78-.68-22.67-1.13-26.15-.62-17.13-.15-5.75-.38-12.57-.15-38.33-.15-11.47c-.09-6.48-1.42-12.65-.67-18.94.56-4.71.34-8.94,0-13.73l-1.02-14.37-.07-49.91.11-8.58-.97-14.53-.72-31.32c-.14-6.16.1-11.77.07-17.82l-.15-24.96-.66-40.89-.37-8.49-.76-14.96-2.11-37.07-.1-31.61,2.42-9.63.53-23c.11-4.73.49-9.03.09-13.82l-1.22-14.48c-.27-3.23-2.32-7.93-3.83-10.41l-5.45-8.92c-2.56-4.18-5.51-7-8.49-10.8l-6.59-8.41c-10.08-3.54-19.64.03-29.58-.96l-18.38-1.82-7.65,1.89-16.22.6c-8.21.3-15.78.72-23.94-.05l-9.73-.92-18.13-.38-7.65-1.69-33.51-.28-8.67-.2-10.61-.46-15.4-1.47-7.72-.4c-4.47-.23-9.84-.46-14.08.18-4.85.74-6.73.13-11.37-1.79l-15.49-.73-10.77-.78-10.56-.6-15.54-1.67-23.57-2.04-12.68-.13-12.45-.76-9.12-.66-8.21-.49-15.28-.67-9.67.14c-9.98.14-19.73-2.99-29.67-3.45l-12.25-.56-8.02-.17-7.56-.16c-4.63,1.32-9.29.34-13.56-2.08-4.27.87-8.23,1.05-12.54.08l-5.65.61-13.38-1.17c-5.15-.45-10.91-2.16-16.24-2.46l-27.86-1.59-26.09-2.07-5.45.7c-8.96-1.92-17.49-2.52-26.53-1.25l-15.68-.26c-2.85-.05-4.54-.08-7.31-.7-4.34-.97-9.39-.33-13.93.1l-8.03.77c-5.52.53-10.87,1.32-16.43,3.07-3.1,5.07-2.46,11.65-6.24,17.5-2.29,3.55-3.2,5.9-2.31,10.04.74,3.44.69,6.53.71,10.31.03,5.85,4.98,20.33,10.3,25.62l6.83.74c2.63,3.43,4.98,2.71,8.5,2.95l14.1.97c7.39.51,14.34,3.68,21.91,1.88,3.41-.81,6.77.66,10.14.83l8.41.44,14.61,1.28c7.64.67,14.38.64,22.13,1.5l14.96,1.67,14.21,2.1c5.09.75,8.7,1.93,14.1.73,8.87-1.97,14.78,4.27,19.9-.22,2.42,1.3,6.44,3.8,8.95,3.45,5.25-.74,9.08-.31,13.99-.15l7.81.27,13.31-1.55,15.18,1.49h8.88c4.85,0,10.26.51,14.92-.26,4.29-.71,7.14.23,11.16.8l14.31,2.04,22.35,1.01c10.17.46,19.85.75,30.07-.03l7.7,2.51c5.57-3.43,10.91-.85,16.87-.59l19.59.84,13.4.35,9.67,1.57,27.99.06,12.31.63,11.62.6c5.62.29,10.96,1.24,15.98,3.25l3.35-1.95c.58-.34,2.28,1.59,2.98,1.65l12.05.99,8.55.82c8.54-3.86,19.39.97,30.37-.56,5.81-.81,10.14-.67,16.14-.38l12.76.62,5.89,1.36c2.03.47,4.62.65,6.98.64l10.82-.03,13.24,2.28c4.51.78,11.6,1.19,12.1,6.64l3.95,43.31.75,17.26.87,19.67.99,20.3.87,22.51.35,16.26,1.36,22.14.71,21.08,1.37,27.9.18,25.79.99,20.69.83,49.92.46,28.32.53,23.04v17.25s.09,13.56.09,13.56l2.01,58.35.94,15.45.89,15.35.8,38.12.86,12.8,2.06,16.23.46,9.61,1.52,20.91c2.19,15.11,3.24,29.25,3.01,44.55l-.27,18.04v9.55s.36,19.44.36,19.44l.55,17.1.1,20.4-.62,21.83-1.07,13.3-28.48-3.63-8.84.62-51.39.3-8.8.65-23.06.45-15.6.54-27.51.34-6.78-.1-13.3-1.43-12.98-.23-16.88-1.86-17.38-.03-5.6.51-25.97-.24-22.9-.47-11.3-.95-10.89.36-7.25.95-9.01-.3-9.54-.51-8.71-.12-8.69.06-14.32-.97-16.88-.35-16.64-1.11-14.53-.85-19.52-.85-8.26-1.6-17.19-.07-15.27-1.97-12.54-.19-14.7-.66-11.23-.53c-8.59-1.61-15.79-.63-24.36.22l-11.14-.61-25.08-.21-11.37-.11-12.33-1.56c-4.81-1.48-9.35-2.31-14.02-.02-9.11-.52-16.79,6.81-17.36,16.15-.48,7.93-7.59,4.47-4.09,16.65Z"/>
  <path d="M502.96,1454.89c-3.49-12.18,3.61-8.72,4.09-16.65.57-9.34,8.25-16.67,17.36-16.15,4.68-2.29,9.21-1.45,14.02.02l12.33,1.56,11.37.11,25.08.21,11.14.61c8.57-.86,15.77-1.83,24.36-.22l11.23.53,14.7.66,12.54.19,15.27,1.97,17.19.07,8.26,1.6,19.52.85,14.53.85,16.64,1.11,16.88.35,14.32.97,8.69-.06,8.71.12,9.54.51,9.01.3,7.25-.95,10.89-.36,11.3.95,22.9.47,25.97.24,5.6-.51,17.38.03,16.88,1.86,12.98.23,13.3,1.43,6.78.1,27.51-.34,15.6-.54,23.06-.45,8.8-.65,51.39-.3,8.84-.62,28.48,3.63,1.07-13.3.62-21.83-.1-20.4-.55-17.1-.35-19.44v-9.55s.26-18.04.26-18.04c.23-15.3-.82-29.44-3.01-44.55l-1.52-20.91-.46-9.61-2.06-16.23-.86-12.8-.8-38.12-.89-15.35-.94-15.45-2.01-58.35-.07-13.56v-17.25s-.54-23.04-.54-23.04l-.46-28.32-.83-49.92-.99-20.69-.18-25.79-1.37-27.9-.71-21.08-1.36-22.14-.35-16.26-.87-22.51-.99-20.3-.87-19.67-.75-17.26-3.95-43.31c-.5-5.45-7.59-5.87-12.1-6.64l-13.24-2.28-10.82.03c-2.35,0-4.95-.18-6.98-.64l-5.89-1.36-12.76-.62c-6.01-.29-10.33-.43-16.14.38-10.98,1.53-21.83-3.3-30.37.56l-8.55-.82-12.05-.99c-.7-.06-2.4-1.99-2.98-1.65l-3.35,1.95c-5.03-2.01-10.37-2.96-15.98-3.25l-11.62-.6-12.31-.63-27.99-.06-9.67-1.57-13.4-.35-19.59-.84c-5.96-.25-11.29-2.83-16.87.59l-7.7-2.51c-10.21.78-19.89.49-30.07.03l-22.35-1.01-14.31-2.04c-4.02-.57-6.87-1.51-11.16-.8-4.67.77-10.07.25-14.92.26h-8.88s-15.18-1.48-15.18-1.48l-13.31,1.55-7.81-.27c-4.91-.17-8.73-.59-13.99.15-2.51.35-6.53-2.15-8.95-3.45-5.12,4.49-11.03-1.75-19.9.22-5.39,1.2-9.01.02-14.1-.73l-14.21-2.1-14.96-1.67c-7.75-.86-14.48-.83-22.13-1.5l-14.61-1.28-8.41-.44c-3.38-.18-6.73-1.65-10.14-.83-7.57,1.8-14.53-1.37-21.91-1.88l-14.1-.97c-3.53-.24-5.87.47-8.5-2.95l-6.83-.74c-5.32-5.29-10.27-19.77-10.3-25.62-.02-3.78.03-6.88-.71-10.31-.89-4.14.02-6.49,2.31-10.04,3.78-5.85,3.14-12.43,6.24-17.5,5.56-1.75,10.91-2.54,16.43-3.07l8.03-.77c4.54-.44,9.58-1.07,13.93-.1,2.78.62,4.46.66,7.31.7l15.68.26c9.04-1.27,17.56-.67,26.53,1.25l5.45-.7,26.09,2.07,27.86,1.59c5.32.3,11.08,2.01,16.24,2.46l13.38,1.17,5.65-.61c4.31.97,8.27.79,12.54-.08,4.27,2.43,8.92,3.41,13.56,2.08l7.56.16,8.02.17,12.25.56c9.94.45,19.7,3.59,29.67,3.45l9.67-.14,15.28.67,8.21.49,9.12.66,12.45.76,12.68.13,23.57,2.04,15.54,1.67,10.56.6,10.77.78,15.49.73c4.64,1.93,6.52,2.53,11.37,1.79,4.24-.64,9.61-.41,14.08-.18l7.72.4,15.4,1.47,10.61.46,8.67.2,33.51.28,7.65,1.69,18.13.38,9.73.92c8.16.77,15.73.35,23.94.05l16.22-.6,7.65-1.89,18.38,1.82c9.94.98,19.5-2.58,29.58.96l6.59,8.41c2.98,3.8,5.93,6.62,8.49,10.8l5.45,8.92c1.51,2.48,3.56,7.17,3.83,10.41l1.22,14.48c.4,4.79.02,9.09-.09,13.82l-.53,23-2.42,9.63.1,31.61,2.11,37.07.76,14.96.37,8.49.66,40.89.15,24.96c.04,6.06-.21,11.67-.07,17.82l.72,31.32.97,14.53-.11,8.58.07,49.91,1.02,14.37c.34,4.79.57,9.01,0,13.73-.75,6.29.58,12.46.67,18.94l.15,11.47.15,38.33.38,12.57.15,5.75.62,17.13,1.13,26.15.68,22.67,1.84,25.78,1.12,12.2.73,28.5,1.13,16.34,1.68,21.14.55,8.72.43,40.2.52,12.22.73,16.97.78,27.24.21,7.6,3.74,30.72,1.27,16.52c.49,6.32.59,11.63,2.95,17.54,2.63,6.57-.43,20.07-4.2,28.07l-6.75,3.17c-1.08,5.63-4.28,10.68-9.19,13.84-6.83-1.18-13.28-1.17-19.9-.3-14.07-1.77-27.59-1.27-41.7-1.24l-46.43.11-17.6-.89-11.49-.58-12.58-.63-31.2-.84-35.58-.81-22.77-1.17-23.97-1.06-31.97-1.64-16.53-.95c-5.66-.33-10.97.04-16.59-.04l-21.72-.31-23.14-.8-8.56.09-17.31-.2-10.7-.95-11.38-.67-14.43-.94-10.69-.11-18.95-1.26-9.13-.62-16.77-.96-11.82-.06-15.23-1.15-13.63-1.8-16.84-.71-7.93-.34-13.74-.12-33.67.19c-9.23.05-18.58.97-27.63-.22l-21.92-2.87c-8.3-1.09-15.78-6.87-18.07-14.85l-3.58-12.49Z"/>
</svg>