<?xml version="1.0" encoding="UTF-8"?>
<svg id="Layer_1" xmlns="http://www.w3.org/2000/svg" version="1.1" viewBox="0 0 792 1224">
  <!-- Generator: Adobe Illustrator 30.8.1, SVG Export Plug-In . SVG Version: 2.1.4 Build 1)  -->
  <defs>
    <style>
      .st0 {
        fill: #fff;
      }
    </style>
  </defs>
  <path class="st0" d="M0,0h792v1224H0V0ZM510.98,114.7c2.43,1.58,7.65,2.67,10.5,3.93l20.81,9.2,10.64,4.94,9.95,5.05,12.66,7.61c8.78,5.28,16.9,10.79,24.91,17.08,10.67,6.2,21.16,12.63,29.73,21.21l7.78,7.79,17.72,17.85,12.01,11.51,9.69,10.97,8.53,10.53,5.56,6.9,6.2,8.17,7.31,10.09,4.21,7.14,8.11,11.18,3.75,5.73,4.06,4.76c10.83,12.7,17.5,34.75,34.81,23.29.12-2.28.56-6.4-.42-8l-3.94-6.42-4.81-7.49-13.35-15.56-13.2-18.46-4.78-6.79-10.83-13.91c-2.33-3-3.9-5.45-6.84-7.79-1.25-2.22-2.96-4.95-4.7-6.75l-8.54-8.84-7.85-8.56-3.99-4.57-11.98-11.14-12.76-13.08-8.12-8.15-8.2-7.19-19.28-13.44c-2.91-2.02-6.79-4.55-8.9-7.11-3.18-3.85-6.13-5.12-10.09-7.54-5.92-3.63-11.52-7.7-17.79-10.9l-19.04-9.71-25.68-12.83-9.47-4.09-29.58-11.56-15.69-4.57-21.01-5.03-13.82-3.27-20.59-3.45c-16.64-2.78-33.25-4.03-50.26-3.06l-22.19,1.27c-30.52,1.75-70.83,10.28-99.55,20.79l-26.73,9.78c-40.78,14.92-94.52,41.21-124.08,72.64l-11.65,12.39c-5.57,5.93-10.51,12.43-15.31,19.18l-5.99,8.43c-3.77,5.31-7.4,10.55-10.56,16.27l-9.88,17.92-4.28,8.94-3.74,8.04c-2.88,6.19-6.21,12.79-8.14,19.25l-3.85,12.93c-.89,2.99-.96,9.43.77,12.25,6.02,9.79,18.18,10.29,19.94,6.07l3.18-7.62c2.63-6.3,4.89-12.11,7.9-18.21l9.8-19.87c2.13-4.31,5.16-10.66,7.95-13.71.78-.85,1.32-3.76,1.84-4.64,2.91-4.96,7.13-10.27,10.89-14.82,3.75-4.54,6.52-9.38,10.07-14.18,11.76-15.89,24.91-30.57,40.8-42.55l11.48-8.66,8-5.52c5.95-4.1,11.57-7.94,18.26-10.65,7.85-3.18,14.01-9.25,21.83-12.57l23.64-10.03c5.12-2.17,9.55-4.54,14.71-6.51l20.19-7.7,15.07-5.9,13.33-5.03c3.46-1.3,6.57-2.07,10.46-2.93l9.4-2.07c6.41-1.41,11.91-2.57,18.5-3.55,13.82-2.07,27.06-4.98,41.18-5.42l29.38-.92c8.33-.26,16-.55,24.39.49,12.2,1.5,24.26,1.93,36.09,4.86l12.84,3.18,10.64,3.54,12.54,3.2c6.71,1.71,11.05,1.8,17.45,5.96h0ZM457.48,772.67l-29.56,3.73-31.53,5.73-6.91,1.65-10.09,2.44-15.06,4.07-9.35,3.23-6.69,2.27-15.7-9-7.13-5.51-15.52-15.19-9.48-11.53-7.22-10.98-10.09-17.65-4.54-8.86-7.55-19.98-4.38-10.62-3.08-10.39c-2.46-8.29-5.1-16.53-6.18-25.14l-1.48-11.81-1.15-10.4-1.64-29.75.56-28.73,1.09-7.42c-.94-3.63.59-6.49,1.36-9.63l4.42-18.01,1.93-12.68,8.27-29.98,3.87-10.42c2.77-7.45,4.78-15.37,8.22-22.54l3.48-7.24c4.97-10.34,12.5-18.4,20.43-26.5,4.34-4.43,8.81-7.59,13.81-11.31l10.32-7.67,7.55-5.02c8.81-5.86,18.73-9.57,28.72-12.67l14.65-4.54c1.54-.48,1.94-4.86,1.06-6.34-3.33-5.6-23.83-7.15-33.4-4.96s-17.63,4.8-25.84,8.84c-10.89,5.36-20.85,11-30.04,18.97l-22.16,19.22c-3.24,2.81-6.75,7.31-8.78,11.1l-12.5,23.23-4.27,10.18-5.54,14.79-5.51,16.46-8.22,32.98-4.76,31.49-1.41,18.98.55,33c.2,11.93,2.38,23.5,3.32,35.4.61,7.8,3.1,14.57,5.11,21.88,2.83,10.27,5.63,20.11,9.21,30.23l5.81,16.42,3.61,6.97,5.95,12.33,6.19,11.23,10.65,16.03c5.83,8.77,12.48,16.01,20.76,22.37l18.48,14.2c3.79,2.91,7.95,3.26,12.56,6.94l-15.42,8.59-15.51,9.23-23.04,16.73c-9.03-1.39-18.23-3.12-26.62-7.55l-12.21-6.45-9.46-3.88c-8.81-3.61-16.01-9.42-21.83-16.68l-17.54-21.88-4.4-8.71-6.12-10.42-5.66-9.73-3.8-6.64-4.3-8.81-7.04-15.37-10.06-24.41-3.85-11.54-3.79-12.07c-1.1-3.49-1.76-6.87-2-10.6l-1.52-24.04.56-18.33c1.22-11.74,3.4-22.76,3.94-34.6.33-7.32,2.65-14.39,4.81-21.34l5.01-16.15,5.28-18.15,5.13-13.84c2.33-6.29,3.61-13.24,6.71-19.22l5.92-11.39,7.37-14.8c4.56-9.17,11.27-17.14,15.24-26.61l4.99-8.67c3.93-6.83,8.62-12.7,13.96-18.68l9.05-10.14,8.06-8.26,6.86-6.65,7.16-6.22,11.56-8.64,7.22-5.32,9.54-6.77c9.7-5.55,19.38-10.15,29.47-14.5l12.94-5.57c7.42-3.2,14.87-5.27,22.91-6.92l17.27-3.54,17.98-3.02,25.51-6.37c-.42-10.96-9.43-17.05-19.64-16.19-12.57,1.05-24.54,1.28-37.28.89l-11.2.97-12.84,1.91-12.74,3.2-13.56,4.81-7.72,2.92c-25.39,9.6-38.69,19.55-59.88,34.89-8.77,6.35-15.68,14.18-23.6,21.54-7.3,6.79-14.17,13.33-19.56,21.81l-6.76,10.63-8.52,13.46-12.29,20.36-9.88,19.84-11.94,28.11-4.59,12.78-3.11,8.17-2.05,6.93-4.22,14.25c-2.59,8.76-6.18,17.42-7.41,26.55l-1.97,14.57-2.18,17.16-.9,19.09.31,28.79,2.24,15.48,2.01,9.38,4.52,12.78,4.67,11.53,6.62,17.81,9.76,21.76,4.46,8.92,15.1,26.07,4.97,8.46,6.56,9.96,5.56,7.65c5.72,10.17,12.14,18.8,20.11,27.04,6.77,7,25.87,19.52,35.67,24l7.89,3.6,16.36,7.7c.7.33,2.16.8,1.84,1.26l-1.14,1.69c-15.71,14.27-29.67,29.63-42.53,46.49l-8.54-4.12-12.38-6.8-12.88-7.29-6.38-4.05-17.42-11.53c-11.47-7.59-19.66-18.57-28.11-29.33l-4.71-5.99-4.85-5.55-11.58-21.23-5.37-9.97-6.61-16.4-4.27-11.47-6.49-21.61-1.97-7.64-3.58-12.78-5.96-38.56-.49-9.73-.46-24.12-.85-8.8-.4-6.52.25-15.4,1.68-14.52c1.77-15.35,2.96-30.09,7.3-44.92l3.53-12.07,2.12-10.71,3.17-11.37,2.14-11.3,2.67-8.75,6.61-21.36c3.45-11.16,7.71-20.85,13.27-31.16l4.34-8.06,8.92-14.1,6.09-9.38,8.3-11.95,10.48-15.53,5.22-7.11c5.83-7.95,12.55-14.73,19.62-21.69l16.37-16.13c4.8-4.73,9.59-9.09,14.85-13.1l15.31-11.68,8.61-5.76c8.86-5.93,18.02-10.41,27.89-14.41l11.5-4.67c8.13-3.3,15.48-7.11,23.24-11.33,5.09-2.77,11.63-3.24,17.09-5.11,6.99-2.4,13.48-3.82,20.57-5.52l10.86-2.6c2.92,2.76,5.88,5.57,9.56,6.87,29.49,10.43,42.54,14.19,74.54,10.43,9.46-1.11,17-7.19,21.05-15.8l15.7.68,25.06,3.81,7.06,1.41,15.31,2.77c11.91,2.16,23,5.99,34.55,9.64l15.28,4.83,16.84,5.35,13.91,4.7,13.6,6.36,9.57,6.6c2.09,1.44,3.68,4.48,5.44,5.12,1.87.69,6.91-1.1,6.88-2.98-.06-3.99,0-9.01-1.33-12.11l-3.49-8.15c-2-4.67-7.4-7.55-11.11-10.7-10.28-8.72-21.6-12.51-34.02-17.19l-27.11-10.2-8.89-2.89-18.13-4.8-8.61-1.91-17.79-4.75-15.77-3.38-20.31-3.44-2.42-10.59-3.74-9.66-4.08-6.54c-3.07-4.91-5.95-9.71-10.48-13.65-8.41-7.31-17.53-13.35-27.47-18.59l-10.92-1.55c-10.09-1.43-19.69,1.02-29.31,3.62-7.49,2.02-13.85,4.6-20.14,8.81-5.27,3.53-10.39,7.02-12.97,13.07l-7.49,17.51c-2.13,4.99-2.95,10.64-3.81,16.02l-28.8,6.74c-9.13,2.14-17.15,6.14-25.63,9.97l-21.33,9.65c-13.03,5.9-29.87,12.21-40.17,20.15l-18.98,14.63-13.5,11.45-9.46,9.84-7.67,6.59c-2.48,2.13-4.18,3.8-6.39,6.19l-5.53,6-7.03,9.35-9.57,12.28-7.03,10.36-15.94,23.33-4.72,7-6.31,10.82-7.93,15.19-4.15,9.18-12.14,31.07-5.21,16.95-10.32,46.15-4.69,21.39-2.48,17.3c-2.39,16.64-4.32,32.59-2.9,49.41l-.55,18.58,1.28,26.88,1.01,9.3,4.11,28.27,1.93,8.85,5.95,19.91,3.59,11.94,3.32,10.84,3.75,13.62,5.08,12.04,5.42,13.09,8.65,15.53,7.6,13.62,9.38,13.32,7.41,10.05,4.4,6.07,6.06,7.33,8.41,9,8.68,8.68c2.13,2.13,5.22,4.77,7.8,6.21,4.53,2.53,7.43,4.91,11.3,8.44,2.13,1.95,6.77,3.65,9.47,5.45l7.01,4.67,10.34,6.33,8.88,6.31-11.57,21.08c-13.8,25.15-26.75,59.12-32.82,87.04l-4.65,21.4c-.91,4.21.65,10.68,3.47,13.47,9.07,3.51,17.9,1.3,26.95-.31l22.68-4.05,19.99-2.75,30.2-3.38,14.91-1.44,16.77-1.89,34.12-3.88,8.61-.2,18.38-2,12.05-.69,30.01-2.56,10.41-.44,42.86-3.89,15.36-1.07c6.91-.48,12.88-.81,19.63-.63l34.68.93,22.99-1.96c11.24-.96,21.58-1.46,32.77-1.44l20.8.05,9.93.32c16.58.54,33.12.6,48.92,6.15,3.88,1.36,6.84,2.96,9.91-1.96,1.17-1.88,4.71-2.64,7.06-3.02,6.61-1.08,5.18-7.93,4.81-12.8l-1.18-15.53-1.22-6.11-2.49-12.81-1.83-9.57-4.37-20.94-3.95-15.41-5.22-13.93-2.69-6.81-8.68-18.29-8.81-20.68-8.34-13.93-6.52-10-7.63-10.35-12.12-14.28,22.23-22.21,8.79-8.45,18.64-19.78,10.28-11.85c7.45-8.59,10.31-19.33,19.59-30.22,1.86-2.19,3.25-3.7,4.52-6.11l6.98-13.13,4-6.72c1.87-3.13,3.75-7.45,5.03-10.97l2.88-7.89,7.57-24.2c5.65-18.08,6.49-36.45,6.41-55.39l-.1-24.97-.98-9.56-1.6-14.81-2.27-19.76c-.58-5.05-.28-9.84-2.02-14.75l-.81-6.97-2.72-12.62-3.26-14.75-5.72-19.28-2.34-6.25-4.82-13.56-10.59-22.99-8.63-15.37-4.21-7.28-7.15-12.21c-2.34-3.99-6.11-8-9.3-11.48l-6.04-6.59-12.37-11.63c-9.09-8.55-18.18-17.49-29.26-23.28l-8.85-4.63-21.38-11.38-19.96-9.03c-8.71-3.94-16.92-7.06-26.2-9.39l-9.88-2.48c-7.6-1.91-14.8-3.24-22.71-3.45-12.03-.31-23.37-.4-35.38,1.49-3.27.51-7.35,3.78-9.22,6.27.95,7.48,4.79,13.67,11.33,17.76,5.04,3.15,12.61.9,18.79.88l16.43-.03,29.3,3.48,9.77,3.35c9.81,1.74,17.78,5.95,26.69,9.72,6.48,2.75,12.51,5.44,18.62,9.25l11.8,7.35,15.78,10.45c6.85,2.41,12.93,6.49,16.93,12.75,15.82,12.28,27.06,28.42,34.79,46.84l4.37,7.06c4.08,6.58,6.76,13.1,9.51,20.33l8.72,22.91c-.35,5.46.27,10.65,2.9,15.45l1.85,10.46.99,7.12,1.91,13.65,2.22,15.78.51,8.6c.56,9.46,2.88,18.36,1.68,27.58v16.67l-1.08,21.57-1.1,9.67-3.6,17.22-2.64,10c-2.25,8.51-6.05,16.42-10.12,24.2l-7.9,15.11-5.59,8.88-11.4,16.46-6.69,10.71c-3.21,5.13-6.99,10.36-10.93,14.75l-12.31,13.7-7.61,7.84-22.85,23.14-11.44,11.82-17.96-14.5,13.72-14.95,3.61-5.75,4.54-6.28c3.09-4.28,5.53-8.68,7.62-13.51l3.5-8.07c5.29-12.22,9.38-24.37,9.82-37.96,3.03-6.59,3.9-13.3,3.41-20.65l3.19-13.57.44-7.56.93-11.43-.07-39.12-1.09-28.68-1.13-34.16-.6-15.1-2.94-24.96-2.43-13.46c-.61-3.4-.7-6.79-1.75-9.75l-4.01-11.37-4.63-11.79-3.31-11.37c-3.79-12.99-10.62-24.24-18.26-35.17l-5.97-6.64-8.79-8.52-8.81-5.64-15.02-9.8c-5-3.26-8.8-5.25-14.57-6.84-10.07-2.77-19.68-6.14-30.24-6.64l-18.32-.86c-2.37-.11-6.96.69-7.88,2.58-2.33,4.81,2.82,7.08,5.14,9.18,6.03,5.48,11.79,8.83,20.28,8.18s17.59.18,25.22,3.99l15.42,7.7,7.62,4.88,7.43,7.12c3.43,3.28,6.33,8.11,8.54,12.25l6.12,11.47c1.91,3.59,2.56,7.9,3.98,11.55,5.28,13.62,9.45,26.77,11.4,41.32l1.84,13.67.92,13.52,1.07,22.03.64,13.29.96,24.33.49,14.35.13,40.19-.83,15.41-3.45,30.26-1.55,8.9-2.52,16.53c-2.43,15.91-8.42,30.45-15.8,44.71l-15.8,24.78-6.34-2.95c-19.52-9.09-37.2-10.04-59.49-7.23l-.04-.04h0ZM430.59,766.25l43.88-9.55,31.27-15.82,17.56-12.34c6.86-4.82,13.29-12.64,16.2-20.74l4.82-13.43,3.49-15.82,3.23-34.34c1.96-37.87-5.21-78.08-25.95-110.27l-6.86-10.64c-10.09-15.66-21.74-29.91-37.19-40.46l-17.8-12.16-14.4-7.62c-6.96-3.68-14.15-5.29-21.73-7.18l-21.4-5.34c-11.91-2.97-23.87-2.73-36.06-1.35l-13.14,1.5-13.3,2.07-33.72,17.11-9.09,10.07c-9.37,10.38-14.05,23.69-18.46,37.1l-5.92,18.05c-3.04,9.27-7,18.4-8.25,28.1l-3.07,23.95-1.96,15.86-.35,18.24,1.23,10.72c3.07,14.78,9.88,27.96,15.57,42.04,6.15,15.22,13.12,29.13,23.66,41.77l12.3,14.74c5.73,6.86,13.82,13.39,22.24,16.68l14.41,5.63,15.22,6.03c18.48,7.33,46.38,11.16,63.57,7.42v-.02h0ZM157.91,1186.93l18.82.05,22.55-.95,22.15-.6,27.83-.29,15.01-.17,18-1.38,36.74-1.59,41.94-.35,13.41-.37,22.43.04,25.55,1.03,26.15-1.11,20,.66,36.37,1.01,26.96,2.4,24.93.92,23.13-.72,18.89-1.34c11.71.37,22.29-.31,33.6-1.58l20.89.62c2.04-1.54,5.1-5.6,5.02-8.22l-.7-22.98-.6-10.67-.06-24.79c-.02-8.97.69-17.1-.03-25.93l-.95-11.62c-.4-4.93-1.07-9.34-6.37-11.2-2.95-3.88-7.6-4.83-12.23-3.15-9.77-.99-19.76-3.28-29.51-2.36l-21.14,1.99-25.12,1.52-32.37.2-14.9.62-14.17-.52-32.57,1.18-23.82.62-48.45,4.14-19.49.76-9.22,1.96-25.8.66-15.82,3.82-7.73,1.07-12.81.98c-6.22.47-11.96,2.39-18.14,1.26-4.14-.76-8.03-1-12.23-.41l-13.22,1.88-14.39,1.3-10.67,1.68-22.7,2.35-14.5,1.79-14.32,1.29-26.39,4.27-24.73,5.24-2.08,18.11-.82,20.89.36,35.18c.02,2.09,4.06,3.69,5.5,4.81,6.42,4.96,13.26,7.4,21.8,6.01h.02Z"/>
  <path d="M457.48,772.67c22.29-2.81,39.97-1.86,59.49,7.23l6.34,2.95,15.8-24.78c7.37-14.26,13.37-28.81,15.8-44.71l2.52-16.53,1.55-8.9,3.45-30.26.83-15.41-.13-40.19-.49-14.35-.96-24.33-.64-13.29-1.07-22.03-.92-13.52-1.84-13.67c-1.96-14.55-6.12-27.7-11.4-41.32-1.42-3.66-2.06-7.97-3.98-11.55l-6.12-11.47c-2.21-4.14-5.11-8.97-8.54-12.25l-7.43-7.12-7.62-4.88-15.42-7.7c-7.63-3.81-16.61-4.65-25.22-3.99s-14.24-2.7-20.28-8.18c-2.32-2.1-7.47-4.37-5.14-9.18.92-1.89,5.51-2.7,7.88-2.58l18.32.86c10.56.5,20.17,3.87,30.24,6.64,5.77,1.59,9.57,3.58,14.57,6.84l15.02,9.8,8.81,5.64,8.79,8.52,5.97,6.64c7.64,10.93,14.48,22.18,18.26,35.17l3.31,11.37,4.63,11.79,4.01,11.37c1.04,2.96,1.13,6.35,1.75,9.75l2.43,13.46,2.94,24.96.6,15.1,1.13,34.16,1.09,28.68.07,39.12-.93,11.43-.44,7.56-3.19,13.57c.49,7.35-.37,14.06-3.41,20.65-.44,13.59-4.53,25.74-9.82,37.96l-3.5,8.07c-2.09,4.84-4.53,9.23-7.62,13.51l-4.54,6.28-3.61,5.75,81.85-347.64c6.06-25.74,40.86-30.08,53.06-6.62l37.59,72.27c11.96,23,10.41,50.69-4.05,72.21l-152.77,227.41,22.85-23.14,7.61-7.84,12.31-13.7c3.94-4.39,7.72-9.61,10.93-14.75l6.69-10.71,11.4-16.46,5.59-8.88,7.9-15.11c4.07-7.78,7.87-15.69,10.12-24.2l2.64-10,3.6-17.22,1.1-9.67,1.07-21.57v-16.67c1.2-9.22-1.12-18.12-1.67-27.58l-.51-8.6-2.22-15.78-1.91-13.65-.99-7.12-1.85-10.46c-2.63-4.8-3.25-9.99-2.9-15.45l-8.72-22.91c-2.75-7.22-5.44-13.75-9.51-20.33l-4.37-7.06c-7.72-18.42-18.97-34.57-34.79-46.84-4-6.26-10.08-10.34-16.93-12.75l-15.78-10.45-11.8-7.35c-6.11-3.8-12.14-6.5-18.62-9.25-8.9-3.77-16.87-7.98-26.69-9.72l-9.77-3.35-29.3-3.48-16.43.03c-6.18.01-13.75,2.27-18.79-.88-6.54-4.09-10.38-10.28-11.33-17.76,1.88-2.49,5.96-5.75,9.22-6.27,12.01-1.89,23.35-1.8,35.38-1.49,7.92.21,15.11,1.54,22.71,3.45l9.88,2.48c9.27,2.33,17.49,5.46,26.2,9.39l19.96,9.03,21.38,11.38,8.85,4.63c11.08,5.79,20.17,14.73,29.26,23.28l12.37,11.63,6.04,6.59c3.19,3.48,6.96,7.49,9.3,11.48l7.15,12.21,4.21,7.28,8.63,15.37,10.59,22.99,4.82,13.56,2.34,6.25,5.72,19.28,3.26,14.75,2.72,12.62.81,6.97c1.74,4.92,1.44,9.7,2.02,14.75l2.27,19.76,1.6,14.81.98,9.56.1,24.97c.08,18.94-.76,37.32-6.41,55.39l-7.57,24.2-2.88,7.89c-1.29,3.52-3.17,7.84-5.03,10.97l-4,6.72-6.98,13.13c-1.28,2.41-2.66,3.92-4.52,6.11-9.28,10.9-12.14,21.63-19.59,30.22l-10.28,11.85-18.64,19.78-8.79,8.45-22.23,22.21,12.12,14.28,7.63,10.35,6.52,10,18.36-46.73c3.69-9.39,10.15-17.43,18.51-23.06l61.1-41.11c11.89-8,26.28,5.89,18.7,18.06l-90.84,145.74,2.69,6.81,5.22,13.93,3.95,15.41,4.33-16.17c3.52-13.16,14.05-23.27,27.34-26.27l48.4-10.91c12.72-2.87,20.97,13.02,11.3,21.77l-82.68,74.9,1.22,6.11,1.18,15.53c.37,4.87,1.81,11.72-4.81,12.8-2.34.38-5.89,1.14-7.06,3.02-3.07,4.92-6.03,3.32-9.91,1.96-15.8-5.55-32.34-5.61-48.92-6.15l-9.93-.32-20.8-.05c-11.19-.03-21.53.48-32.77,1.44l-22.99,1.96-34.68-.93c-6.75-.18-12.73.15-19.63.63l-15.36,1.07-42.86,3.89-10.41.44-30.01,2.56-12.05.69-18.38,2-8.61.2-34.12,3.88-16.77,1.89-14.91,1.44-30.2,3.38-19.99,2.75-22.68,4.05c-9.05,1.62-17.88,3.82-26.95.31-2.82-2.8-4.38-9.27-3.47-13.47l-88.59-83.98c-12.41-11.76-2.59-32.58,14.37-30.42,41.57,5.31,102.51,22.69,111.69,5.96l-121.98-59.16c-10.74-5.21-18.06-15.55-19.42-27.4l-3.05-26.66c-2.13-18.66,20.15-29.86,33.86-17.02l102.94,96.51-7.01-4.67c-2.7-1.8-7.34-3.51-9.47-5.45-3.87-3.53-6.76-5.91-11.3-8.44-2.58-1.44-5.67-4.08-7.8-6.21l-8.68-8.68-8.41-9-6.06-7.33-4.4-6.07-7.41-10.05-9.38-13.32-7.6-13.62-8.65-15.53-5.42-13.09-5.08-12.04-3.75-13.62-3.32-10.84-3.59-11.94-5.95-19.91-1.93-8.85-4.11-28.27-1.01-9.3-1.28-26.88.55-18.58c-1.42-16.82.52-32.77,2.9-49.41l2.48-17.3,4.69-21.39,10.32-46.15,5.21-16.95,12.14-31.07,4.15-9.18,7.93-15.19,6.31-10.82,4.72-7,15.94-23.33,7.03-10.36,9.57-12.28,7.03-9.35,5.53-6c2.21-2.39,3.91-4.07,6.39-6.19l7.67-6.59,9.46-9.84,13.5-11.45,18.98-14.63c10.3-7.94,27.14-14.26,40.17-20.15l21.33-9.65c8.48-3.84,16.5-7.84,25.63-9.97l28.8-6.74c.86-5.38,1.67-11.03,3.81-16.02l7.49-17.51c2.59-6.05,7.7-9.55,12.97-13.07,6.29-4.21,12.65-6.79,20.14-8.81,9.62-2.6,19.22-5.05,29.31-3.62l10.92,1.55c9.95,5.24,19.06,11.28,27.47,18.59,4.53,3.93,7.41,8.73,10.48,13.65l4.08,6.54,3.74,9.66,2.42,10.59,20.31,3.44,15.77,3.38,17.79,4.75,8.61,1.91,18.13,4.8,8.89,2.89,27.11,10.2c12.42,4.68,23.74,8.47,34.02,17.19,3.71,3.15,9.11,6.02,11.11,10.7l3.49,8.15c1.33,3.1,1.28,8.12,1.33,12.11.03,1.88-5.01,3.67-6.88,2.98-1.76-.64-3.35-3.68-5.44-5.12l-9.57-6.6-13.6-6.36-13.91-4.7-16.84-5.35-15.28-4.83c-11.55-3.65-22.64-7.48-34.55-9.64l-15.31-2.77-7.06-1.41-25.06-3.81-15.7-.68c-4.05,8.61-11.59,14.69-21.05,15.8-32,3.77-45.05,0-74.54-10.43-3.68-1.3-6.64-4.11-9.56-6.87l-10.86,2.6c-7.09,1.7-13.57,3.11-20.57,5.52-5.46,1.88-12,2.34-17.09,5.11-7.76,4.23-15.11,8.03-23.24,11.33l-11.5,4.67c-9.86,4.01-19.02,8.48-27.89,14.41l-8.61,5.76-15.31,11.68c-5.26,4.01-10.05,8.37-14.85,13.1l-16.37,16.13c-7.07,6.97-13.79,13.75-19.62,21.69l-5.22,7.11-10.48,15.53-8.3,11.95-6.09,9.38-8.92,14.1-4.34,8.06c-5.56,10.31-9.82,20-13.27,31.16l-6.61,21.36-2.67,8.75-2.14,11.3-3.17,11.37-2.12,10.71-3.53,12.07c-4.34,14.83-5.53,29.57-7.3,44.92l-1.68,14.52-.25,15.4.4,6.52.85,8.8.46,24.12.49,9.73,5.96,38.56,3.58,12.78,1.97,7.64,6.49,21.61,4.27,11.47,6.61,16.4,5.37,9.97,11.58,21.23,4.85,5.55,4.71,5.99c8.45,10.76,16.65,21.74,28.11,29.33l17.42,11.53,6.38,4.05,12.88,7.29,12.38,6.8,8.54,4.12c12.86-16.85,26.82-32.22,42.53-46.49l1.14-1.69c.32-.47-1.14-.94-1.84-1.26l-16.36-7.7-7.89-3.6c-9.8-4.48-28.9-17-35.67-24-7.97-8.24-14.38-16.86-20.11-27.04l-5.56-7.65-6.56-9.96-4.97-8.46-15.1-26.07-4.46-8.92-9.76-21.76-6.62-17.81-4.67-11.53-4.52-12.78-2.01-9.38-2.24-15.48-.31-28.79.9-19.09,2.18-17.16,1.97-14.57c1.23-9.13,4.82-17.79,7.41-26.55l4.22-14.25,2.05-6.93,3.11-8.17,4.59-12.78,11.94-28.11,9.88-19.84,12.29-20.36,8.52-13.46,6.76-10.63c5.39-8.48,12.26-15.02,19.56-21.81,7.92-7.36,14.83-15.19,23.6-21.54,21.19-15.34,34.5-25.29,59.88-34.89l7.72-2.92,13.56-4.81,12.74-3.2,12.84-1.91,11.2-.97c12.75.39,24.71.16,37.28-.89,10.21-.85,19.22,5.23,19.64,16.19l-25.51,6.37-17.98,3.02-17.27,3.54c-8.03,1.65-15.49,3.72-22.91,6.92l-12.94,5.57c-10.09,4.35-19.77,8.95-29.47,14.5l-9.54,6.77-7.22,5.32-11.56,8.64-7.16,6.22-6.86,6.65-8.06,8.26-9.05,10.14c-5.34,5.98-10.03,11.85-13.96,18.68l-4.99,8.67c-3.97,9.47-10.67,17.45-15.24,26.61l-7.37,14.8-5.92,11.39c-3.1,5.98-4.38,12.93-6.71,19.22l-5.13,13.84-5.28,18.15-5.01,16.15c-2.16,6.95-4.48,14.02-4.81,21.34-.54,11.84-2.72,22.86-3.94,34.6l-.56,18.33,1.52,24.04c.24,3.73.9,7.1,2,10.6l3.79,12.07,3.85,11.54,10.06,24.41,7.04,15.37,4.3,8.81,3.8,6.64,5.66,9.73,6.12,10.42,4.4,8.71-41.41-165.37c-1.36-17.78,6.01-42.17,15.25-63.02,7.7-17.37,33.39-13.74,36.14,5.06l38.85,265.78,12.21,6.45c8.39,4.43,17.59,6.16,26.62,7.55l23.04-16.73,15.51-9.23,15.42-8.59c-4.61-3.68-8.77-4.03-12.56-6.94l-18.48-14.2c-8.27-6.36-14.93-13.6-20.76-22.37l-10.65-16.03-6.19-11.23-5.95-12.33-3.61-6.97-5.81-16.42c-3.58-10.12-6.38-19.96-9.21-30.23-2.01-7.3-4.5-14.08-5.11-21.88-.93-11.91-3.12-23.48-3.32-35.4l-.55-33,1.41-18.98,4.76-31.49,8.22-32.98,5.51-16.46,5.54-14.79,4.27-10.18,12.5-23.23c2.04-3.79,5.54-8.29,8.78-11.1l22.16-19.22c9.18-7.97,19.14-13.61,30.04-18.97,8.21-4.04,16.59-6.72,25.84-8.84s30.07-.63,33.4,4.96c.88,1.48.48,5.86-1.06,6.34l-14.65,4.54c-9.99,3.1-19.91,6.8-28.72,12.67l-7.55,5.02-10.32,7.67c-5,3.71-9.46,6.87-13.81,11.31-7.93,8.1-15.47,16.16-20.43,26.5l-3.48,7.24c-3.45,7.17-5.46,15.09-8.22,22.54l-3.87,10.42-8.27,29.98-1.93,12.68-4.42,18.01c-.77,3.14-2.3,5.99-1.36,9.63l-1.09,7.42-.56,28.73,1.64,29.75,1.15,10.4,1.48,11.81c1.08,8.61,3.72,16.85,6.18,25.14l3.08,10.39,4.38,10.62,7.55,19.98,4.54,8.86,10.09,17.65,7.22,10.98,9.48,11.53,15.52,15.19,7.13,5.51,15.7,9,6.69-2.27,9.35-3.23,15.06-4.07,10.09-2.44,6.91-1.65,31.53-5.73,29.56-3.73.04.04h0Z"/>
  <path d="M157.91,1186.93c-8.54,1.39-15.38-1.05-21.8-6.01-1.44-1.11-5.48-2.72-5.5-4.81l-.36-35.18.82-20.89,2.08-18.11,24.73-5.24,26.39-4.27,14.32-1.29,14.5-1.79,22.7-2.35,10.67-1.68,14.39-1.3,13.22-1.88c4.2-.6,8.09-.35,12.23.41,6.18,1.14,11.93-.78,18.14-1.26l12.81-.98,7.73-1.07,15.82-3.82,25.8-.66,9.22-1.96,19.49-.76,48.45-4.14,23.82-.62,32.57-1.18,14.17.52,14.9-.62,32.37-.2,25.12-1.52,21.14-1.99c9.76-.92,19.74,1.38,29.51,2.36,4.63-1.68,9.28-.73,12.23,3.15,5.3,1.86,5.96,6.26,6.37,11.2l.95,11.62c.72,8.83.01,16.96.03,25.93l.06,24.79.6,10.67.7,22.98c.08,2.61-2.98,6.68-5.02,8.22l-20.89-.62c-11.31,1.27-21.89,1.95-33.6,1.58l-18.89,1.34-23.13.72-24.93-.92-26.96-2.4-36.37-1.01-20-.66-26.15,1.11-25.55-1.03-22.43-.04-13.41.37-41.94.35-36.74,1.59-18,1.38-15.01.17-27.83.29-22.15.6-22.55.95-18.82-.05h-.02Z"/>
  <path d="M430.59,766.25c-17.2,3.74-45.09-.09-63.57-7.42l-15.22-6.03-14.41-5.63c-8.41-3.29-16.51-9.81-22.24-16.68l-12.3-14.74c-10.54-12.63-17.52-26.54-23.66-41.77-5.69-14.08-12.49-27.26-15.57-42.04l-1.23-10.72.35-18.24,1.96-15.86,3.07-23.95c1.24-9.7,5.21-18.83,8.25-28.1l5.92-18.05c4.4-13.41,9.08-26.72,18.46-37.1l9.09-10.07,33.72-17.11,13.3-2.07,13.14-1.5c12.2-1.39,24.16-1.63,36.06,1.35l21.4,5.34c7.58,1.89,14.77,3.5,21.73,7.18l14.4,7.62,17.8,12.16c15.45,10.55,27.1,24.8,37.19,40.46l6.86,10.64c20.75,32.19,27.91,72.4,25.95,110.27l-3.23,34.34-3.49,15.82-4.82,13.43c-2.91,8.1-9.35,15.92-16.2,20.74l-17.56,12.34-31.27,15.82-43.88,9.55v.02h0ZM354.66,634.72c-4.34-18.82-3.7-38.46,2-56.91,15.4-49.83,39.03-171.33,48.44-172.69,9.99-1.44,61.33,178.9,70.75,175.74,7.24-2.42-1.32,121.54,3.51,116.48l5.65-5.92c5.58-7.14,9.3-15.13,13.31-23.21,5.1-10.28,9.85-27.31,8.28-37.34-1.03-6.57-1.63-12.3-1.25-18.87.39-6.95-.61-14.18-2.83-20.9l-12-36.25c-5.14-15.54-24.22-31.46-39.31-38.38-20.82-9.55-41.01-18.29-63.57-10.09-4.07.75-8.02,1.83-11.76,3.72l-19.26,9.76c-2.9,1.47-16.01,13.02-18.76,17.74l-4.26,7.31c-2.87,4.92-4.62,9.43-6.43,14.91-1.97,5.97-6.55,9.06-8.65,16.09-4.87,16.3-8.16,34.24-5.09,51.08l3.57,19.56,6.21,15.05c7.66,18.55,21.03,33.14,38.66,43.23l10.32,5.9-17.53-76.01Z"/>
  <path d="M510.98,114.7c-6.39-4.16-10.74-4.25-17.45-5.96l-12.54-3.2-10.64-3.54-12.84-3.18c-11.84-2.93-23.89-3.36-36.09-4.86-8.4-1.03-16.07-.75-24.39-.49l-29.38.92c-14.12.44-27.36,3.35-41.18,5.42-6.59.99-12.09,2.14-18.5,3.55l-9.4,2.07c-3.89.86-7,1.63-10.46,2.93l-13.33,5.03-15.07,5.9-20.19,7.7c-5.17,1.97-9.59,4.34-14.71,6.51l-23.64,10.03c-7.81,3.32-13.98,9.38-21.83,12.57-6.69,2.71-12.31,6.55-18.26,10.65l-8,5.52-11.48,8.66c-15.88,11.98-29.04,26.67-40.8,42.55-3.55,4.8-6.32,9.64-10.07,14.18-3.76,4.55-7.98,9.86-10.89,14.82-.52.88-1.06,3.79-1.84,4.64-2.79,3.05-5.82,9.4-7.95,13.71l-9.8,19.87c-3.01,6.1-5.28,11.91-7.9,18.21l-3.18,7.62c-1.76,4.22-13.92,3.73-19.94-6.07-1.73-2.82-1.66-9.26-.77-12.25l3.85-12.93c1.92-6.46,5.26-13.06,8.14-19.25l3.74-8.04,4.28-8.94,9.88-17.92c3.16-5.72,6.78-10.96,10.56-16.27l5.99-8.43c4.8-6.75,9.73-13.25,15.31-19.18l11.65-12.39c29.57-31.44,83.3-57.72,124.08-72.64l26.73-9.78c28.73-10.51,69.03-19.04,99.55-20.79l22.19-1.27c17.01-.97,33.62.27,50.26,3.06l20.59,3.45,13.82,3.27,21.01,5.03,15.69,4.57,29.58,11.56,9.47,4.09,25.68,12.83,19.04,9.71c6.27,3.2,11.87,7.28,17.79,10.9,3.96,2.43,6.92,3.69,10.09,7.54,2.11,2.56,6,5.08,8.9,7.11l19.28,13.44,8.2,7.19,8.12,8.15,12.76,13.08,11.98,11.14,3.99,4.57,7.85,8.56,8.54,8.84c1.74,1.8,3.45,4.52,4.7,6.75,2.94,2.33,4.51,4.79,6.84,7.79l10.83,13.91,4.78,6.79,13.2,18.46,13.35,15.56,4.81,7.49,3.94,6.42c.98,1.6.54,5.72.42,8-17.31,11.46-23.98-10.59-34.81-23.29l-4.06-4.76-3.75-5.73-8.11-11.18-4.21-7.14-7.31-10.09-6.2-8.17-5.56-6.9-8.53-10.53-9.69-10.97-12.01-11.51-17.72-17.85-7.78-7.79c-8.57-8.58-19.06-15.01-29.73-21.21-8.01-6.29-16.13-11.8-24.91-17.08l-12.66-7.61-9.95-5.05-10.64-4.94-20.81-9.2c-2.85-1.26-8.07-2.35-10.5-3.93h0Z"/>
  <path d="M438.13,696.17l-25.75,4.2c-9.17,1.5-17.61-2.25-25.94-5.65-9.28-3.78-16.4-9.28-23.63-15.87-15.16-13.83-21.28-21.76-29.11-41.12-9.64-23.84-6.74-48.6,5.12-71.3,5.9-11.29,12.82-21.97,23.99-28.95l15.94-8.09,9.04-2.31,7.34-2.31,9.02.64c16.07,1.14,30.2,8.88,43.5,17.75l7.39,6.1c9.67,7.97,17.44,19.17,20.81,31.6,4.5,16.61,6.59,33.24,6.41,50.13l-1.06,11.44c-1.22,13.1-7.18,31.5-18.09,38.46-5.68,3.62-10.26,7.35-15.11,11.98l-9.87,3.29h0ZM424.62,682.43c18.6-2.18,35.67-11.9,40.13-29.73l3.28-13.11,1.58-15.51c1.46-14.3-2.75-27.09-9.9-39.21-2.79-4.72-5.11-9.28-9.42-12.78l-10.09-8.2c-9.2-7.48-20.92-12.62-32.58-15.15-6.24-1.35-13.22-.67-19.6-.54-11.33.23-26.3,7.36-30.78,19.46l-6.93,18.68c-1.97,8.14-4.03,16.75-3.96,24.8.1,11.74,2.04,23.45,5.82,33.93,3.54,9.82,13.69,20.06,22.65,25.71l10.04,6.32c4.96,3.13,18.45,7.82,21.02,7.52l18.75-2.2h-.01Z"/>
  <path d="M421.39,642.37c-10.28,9.41-27.89,11.34-36.88-1.73-5.72-8.31-9.09-18.76-6.15-29,1.38-4.79,4.99-9.4,7.28-13.55,4.3-7.8,11.17-10.73,19.7-9.06,11.5,2.24,18.64,5.11,24.07,16.54,6.21,13.08,3.01,26.7-8.02,36.8h0Z"/>
</svg>